<?xml version="1.0" encoding="UTF-8" standalone="no"?>
<!-- Created with Inkscape (http://www.inkscape.org/) -->

<svg
   xmlns:dc="http://purl.org/dc/elements/1.1/"
   xmlns:cc="http://creativecommons.org/ns#"
   xmlns:rdf="http://www.w3.org/1999/02/22-rdf-syntax-ns#"
   xmlns:svg="http://www.w3.org/2000/svg"
   xmlns="http://www.w3.org/2000/svg"
   xmlns:sodipodi="http://sodipodi.sourceforge.net/DTD/sodipodi-0.dtd"
   xmlns:inkscape="http://www.inkscape.org/namespaces/inkscape"
   width="209mm"
   height="48mm"
   viewBox="0 0 740.55118 170.07864"
   id="svg2"
   version="1.1"
   inkscape:version="0.91 r13725"
   sodipodi:docname="vd-banner-1.svg">
  <defs
     id="defs4">
    <filter
       inkscape:label="Opacity"
       style="color-interpolation-filters:sRGB"
       id="filter7363">
      <feColorMatrix
         values="1 0 0 0 0 0 1 0 0 0 0 0 1 0 0 0 0 0 5 -1 "
         result="colormatrix"
         id="feColorMatrix7365" />
      <feComposite
         in2="colormatrix"
         operator="arithmetic"
         k2="1.38778e-16"
         result="fbSourceGraphic"
         id="feComposite7367"
         k1="0"
         k3="0"
         k4="0" />
      <feColorMatrix
         result="fbSourceGraphicAlpha"
         in="fbSourceGraphic"
         values="0 0 0 -1 0 0 0 0 -1 0 0 0 0 -1 0 0 0 0 1 0"
         id="feColorMatrix7369" />
      <feColorMatrix
         id="feColorMatrix7371"
         values="1 0 0 0 0 0 1 0 0 0 0 0 1 0 0 0 0 0 5 -1 "
         result="colormatrix"
         in="fbSourceGraphic" />
      <feComposite
         id="feComposite7373"
         in2="colormatrix"
         operator="arithmetic"
         k2="0.5"
         result="fbSourceGraphic"
         k1="0"
         k3="0"
         k4="0" />
      <feColorMatrix
         result="fbSourceGraphicAlpha"
         in="fbSourceGraphic"
         values="0 0 0 -1 0 0 0 0 -1 0 0 0 0 -1 0 0 0 0 1 0"
         id="feColorMatrix7375" />
      <feColorMatrix
         id="feColorMatrix7377"
         values="1 0 0 0 0 0 1 0 0 0 0 0 1 0 0 0 0 0 5 -1 "
         result="colormatrix"
         in="fbSourceGraphic" />
      <feComposite
         id="feComposite7379"
         in2="colormatrix"
         operator="arithmetic"
         k2="0.5"
         result="fbSourceGraphic"
         k1="0"
         k3="0"
         k4="0" />
      <feColorMatrix
         result="fbSourceGraphicAlpha"
         in="fbSourceGraphic"
         values="0 0 0 -1 0 0 0 0 -1 0 0 0 0 -1 0 0 0 0 1 0"
         id="feColorMatrix7381" />
      <feColorMatrix
         id="feColorMatrix7383"
         values="1 0 0 0 0 0 1 0 0 0 0 0 1 0 0 0 0 0 5 -1 "
         result="colormatrix"
         in="fbSourceGraphic" />
      <feComposite
         id="feComposite7385"
         in2="colormatrix"
         operator="arithmetic"
         k2="0.5"
         result="fbSourceGraphic"
         k1="0"
         k3="0"
         k4="0" />
      <feColorMatrix
         result="fbSourceGraphicAlpha"
         in="fbSourceGraphic"
         values="0 0 0 -1 0 0 0 0 -1 0 0 0 0 -1 0 0 0 0 1 0"
         id="feColorMatrix7387" />
      <feColorMatrix
         id="feColorMatrix7389"
         values="1 0 0 0 0 0 1 0 0 0 0 0 1 0 0 0 0 0 5 -1 "
         result="colormatrix"
         in="fbSourceGraphic" />
      <feComposite
         id="feComposite7391"
         in2="colormatrix"
         operator="arithmetic"
         k2="0.5"
         result="fbSourceGraphic"
         k1="0"
         k3="0"
         k4="0" />
      <feColorMatrix
         result="fbSourceGraphicAlpha"
         in="fbSourceGraphic"
         values="0 0 0 -1 0 0 0 0 -1 0 0 0 0 -1 0 0 0 0 1 0"
         id="feColorMatrix7393" />
      <feColorMatrix
         id="feColorMatrix7395"
         values="1 0 0 0 0 0 1 0 0 0 0 0 1 0 0 0 0 0 5 -1 "
         result="colormatrix"
         in="fbSourceGraphic" />
      <feComposite
         id="feComposite7397"
         in2="colormatrix"
         operator="arithmetic"
         k2="0.5"
         result="fbSourceGraphic"
         k1="0"
         k3="0"
         k4="0" />
      <feColorMatrix
         result="fbSourceGraphicAlpha"
         in="fbSourceGraphic"
         values="0 0 0 -1 0 0 0 0 -1 0 0 0 0 -1 0 0 0 0 1 0"
         id="feColorMatrix7399" />
      <feColorMatrix
         id="feColorMatrix7401"
         values="1 0 0 0 0 0 1 0 0 0 0 0 1 0 0 0 0 0 5 -1 "
         result="colormatrix"
         in="fbSourceGraphic" />
      <feComposite
         id="feComposite7403"
         in2="colormatrix"
         operator="arithmetic"
         k2="0.5"
         result="fbSourceGraphic"
         k1="0"
         k3="0"
         k4="0" />
      <feColorMatrix
         result="fbSourceGraphicAlpha"
         in="fbSourceGraphic"
         values="0 0 0 -1 0 0 0 0 -1 0 0 0 0 -1 0 0 0 0 1 0"
         id="feColorMatrix7405" />
      <feColorMatrix
         id="feColorMatrix7407"
         values="1 0 0 0 0 0 1 0 0 0 0 0 1 0 0 0 0 0 5 -1 "
         result="colormatrix"
         in="fbSourceGraphic" />
      <feComposite
         id="feComposite7409"
         in2="colormatrix"
         operator="arithmetic"
         k2="0.5"
         result="composite"
         k1="0"
         k3="0"
         k4="0" />
    </filter>
  </defs>
  <sodipodi:namedview
     id="base"
     pagecolor="#ffffff"
     bordercolor="#666666"
     borderopacity="1.0"
     inkscape:pageopacity="0.0"
     inkscape:pageshadow="2"
     inkscape:zoom="0.98994949"
     inkscape:cx="353.80468"
     inkscape:cy="262.06767"
     inkscape:document-units="px"
     inkscape:current-layer="layer1"
     showgrid="false"
     inkscape:showpageshadow="false"
     showborder="true"
     inkscape:window-width="1366"
     inkscape:window-height="744"
     inkscape:window-x="1920"
     inkscape:window-y="202"
     inkscape:window-maximized="1" />
  <metadata
     id="metadata7">
    <rdf:RDF>
      <cc:Work
         rdf:about="">
        <dc:format>image/svg+xml</dc:format>
        <dc:type
           rdf:resource="http://purl.org/dc/dcmitype/StillImage" />
        <dc:title></dc:title>
      </cc:Work>
    </rdf:RDF>
  </metadata>
  <g
     inkscape:label="Layer 1"
     inkscape:groupmode="layer"
     id="layer1"
     transform="translate(0,-882.28411)">
    <path
       style="font-style:normal;font-weight:normal;font-size:343.95083618px;line-height:125%;font-family:sans-serif;letter-spacing:0px;word-spacing:0px;fill:#008000;fill-opacity:1;stroke:none;stroke-width:1px;stroke-linecap:butt;stroke-linejoin:miter;stroke-opacity:1"
       d="m 112.06278,882.88398 c -6.68876,0 -11.94407,3.86065 -15.766219,11.58094 -3.794836,7.72029 -5.692112,18.28451 -5.692112,31.69342 0,11.58044 1.3788,20.62144 4.136212,27.12273 2.7574,6.50129 7.221029,11.27538 13.391059,14.32287 l 4.17816,2.02223 a 369.76408,134.68984 0 0 1 16.07328,-5.59196 c -2.92422,-6.34472 -7.1872,-10.84768 -12.79828,-13.49591 l -4.99608,-2.54003 c -4.53198,-2.09937 -7.61746,-4.84137 -9.25553,-8.22745 -1.610755,-3.45382 -2.415775,-8.53322 -2.415775,-15.23769 0,-7.99116 1.214865,-14.15392 3.644665,-18.48812 2.45708,-4.33419 5.93775,-6.5017 10.44242,-6.5017 2.5936,0 5.28324,0.91428 8.06794,2.74276 2.78472,1.82849 5.74691,4.60581 8.88653,8.3305 l 0,-20.01197 c -3.11233,-2.57341 -6.15648,-4.50375 -9.1323,-5.79046 -2.97582,-1.28672 -5.89736,-1.93016 -8.76397,-1.93016 z m 16.32038,81.15023 c 0.2913,0.63204 0.57391,1.27577 0.83856,1.94452 2.94852,7.31394 4.42261,17.13381 4.42261,29.45916 0,14.69561 -1.99323,25.83601 -5.97918,33.42081 -3.95865,7.5849 -9.77376,11.3766 -17.44535,11.3766 -2.89391,0 -5.97873,-0.8125 -9.25486,-2.4379 -3.248811,-1.6253 -6.620181,-4.0292 -10.114716,-7.2121 l 0,-21.1295 c 3.358025,4.6728 6.647434,8.1945 9.868946,10.5648 3.22153,2.3702 6.38832,3.5553 9.50063,3.5553 4.72309,0 8.36835,-2.302 10.93465,-6.9071 2.56629,-4.6051 3.84915,-11.1741 3.84915,-19.70705 0,-7.4494 -0.92832,-13.27403 -2.78479,-17.47279 -1.82918,-4.19874 -4.84602,-7.34783 -9.05038,-9.4472 l -0.85855,-0.41559 a 369.76408,134.68984 0 0 0 -35.465494,15.32974 l 0,52.33389 -8.27175,0 0,-48.08332 a 369.76408,134.68984 0 0 0 -27.582725,18.10802 l -4.605785,29.9753 -9.377406,0 -2.310551,-15.013 a 369.76408,134.68984 0 0 0 -16.5008791,30.379 l 736.2826701,0 a 369.76408,134.68984 0 0 0 -57.2915,-61.75568 l 0,29.12048 31.1235,0 0,17.2692 -39.39523,0 0,-50.60308 a 369.76408,134.68984 0 0 0 -16.46293,-8.06019 l 0,58.66327 -11.13846,0 -14.74913,-69.02614 a 369.76408,134.68984 0 0 0 -12.36138,-4.19399 l 0,73.22013 -8.02597,0 0,-75.94431 a 369.76408,134.68984 0 0 0 -16.46291,-4.66616 l 0,80.61047 -8.27175,0 0,-82.90131 a 369.76408,134.68984 0 0 0 -15.80754,-3.87383 l 0,14.3465 -24.24307,0 0,72.42864 -8.27246,0 0,-93.54378 a 369.76408,134.68984 0 0 0 -44.80093,-6.94097 l 0,10.9905 29.11666,0 0,17.26919 -29.11666,0 0,54.95586 31.12281,0 0,17.2692 -39.39523,0 0,-101.58456 a 369.76408,134.68984 0 0 0 -14.39615,-1.51963 c 0.83258,8.00407 1.25085,17.04064 1.25085,27.12018 0,26.14061 -2.7849,45.33961 -8.35432,57.59721 -5.56942,12.2577 -14.25079,18.3868 -26.04481,18.3868 l -16.99509,0 0,-106.84962 a 369.76408,134.68984 0 0 0 -46.65127,-1.30592 l -9.78037,35.93048 0,72.22506 -8.31305,0 0,-72.22506 -9.70444,-35.65257 a 369.76408,134.68984 0 0 0 -30.79646,1.33126 l 0,89.27717 29.77206,0 0,17.2692 -38.04447,0 0,-106.12824 A 369.76408,134.68984 0 0 0 273.57612,934.45 l 0,85.5706 29.77139,0 0,17.2692 -38.04382,0 0,-101.83798 a 369.76408,134.68984 0 0 0 -24.0786,2.95732 l 15.19208,98.88066 -8.60013,0 -5.56888,-38.90641 -27.56075,0 -5.56957,38.90641 -8.72267,0 14.56,-94.59883 a 369.76408,134.68984 0 0 0 -22.54535,4.41614 l 0,33.19447 c 0,19.77472 -1.97924,34.70762 -5.93789,44.79822 -3.93134,10.0905 -9.74646,15.1355 -17.44535,15.1355 -7.72619,0 -13.56862,-5.045 -17.52727,-15.1355 -3.93135,-10.0906 -5.89725,-25.0235 -5.89725,-44.79822 l 0,-21.77656 a 369.76408,134.68984 0 0 0 -17.2189,5.50919 z m 17.2189,-5.50919 a 369.76408,134.68984 0 0 1 8.31304,-2.21313 l 0,-70.68515 -8.31304,0 0,72.89828 z m 8.31304,-2.21313 0,21.45049 c 0,16.25323 1.18821,27.96892 3.5634,35.14742 2.37518,7.1108 6.22438,10.6661 11.54808,10.6661 5.2964,0 9.13227,-3.5553 11.50746,-10.6661 2.37519,-7.1785 3.56274,-18.89419 3.56274,-35.14742 l 0,-28.91856 a 369.76408,134.68984 0 0 0 -30.18168,7.46807 z m 30.18168,-7.46807 a 369.76408,134.68984 0 0 1 8.31304,-1.73671 l 0,-61.48037 -8.31304,0 0,63.21708 z m 30.85839,-6.15285 a 369.76408,134.68984 0 0 1 8.17118,-1.33125 l 5.27982,-35.51828 5.04872,33.83477 a 369.76408,134.68984 0 0 1 7.7702,-1.26707 l -8.10923,-52.7824 -9.37808,0 -8.78261,57.06423 z m 18.49972,-3.01476 a 369.76408,134.68984 0 0 0 -10.32854,1.68351 l -5.94056,39.95805 22.48207,0 -6.21297,-41.64156 z m 31.8488,-4.22439 a 369.76408,134.68984 0 0 1 8.27243,-1.00182 l 0,-48.82326 -8.27243,0 0,49.82508 z m 46.68457,-4.29026 a 369.76408,134.68984 0 0 1 8.27241,-0.41813 l 0,-45.11669 -8.27241,0 0,45.53482 z m 39.06887,-1.74939 a 369.76408,134.68984 0 0 1 8.83925,-0.114 l -11.87048,-43.67139 -8.88651,0 11.91774,43.78543 z m 8.83925,-0.114 5.08332,18.70014 5.08203,-18.83107 a 369.76408,134.68984 0 0 0 -10.16535,0.13093 z m 10.16535,-0.13093 a 369.76408,134.68984 0 0 1 6.183,-0.0803 369.76408,134.68984 0 0 1 2.61026,0.0473 l 11.8425,-43.50752 -8.88654,0 -11.74922,43.54046 z m 55.44453,1.27298 a 369.76408,134.68984 0 0 1 8.27241,0.45529 l 0,-28.40582 9.99218,0 c 8.43604,0 14.60564,4.74044 18.5097,14.22149 1.82236,4.36358 3.21653,9.91397 4.19414,16.62047 a 369.76408,134.68984 0 0 1 9.17494,0.854 c -1.31554,-12.64634 -3.66818,-22.70699 -7.06218,-30.17211 -5.5421,-12.25765 -14.23749,-18.38676 -26.0861,-18.38676 l -16.99509,0 0,44.81344 z m 40.96843,2.89143 a 369.76408,134.68984 0 0 0 -32.69602,-2.43614 l 0,89.53139 9.99218,0 c 8.43604,0 14.60564,-4.7404 18.5097,-14.2215 3.93135,-9.48103 5.89726,-24.44759 5.89726,-44.89957 0,-10.89872 -0.5718,-20.21311 -1.70312,-27.97418 z m 23.57109,2.37363 a 369.76408,134.68984 0 0 1 8.27242,1.09981 l 0,-33.90911 30.38616,0 0,-17.2692 -38.65858,0 0,50.0785 z m 53.07335,8.04078 a 369.76408,134.68984 0 0 1 8.27246,1.45542 l 0,-42.3055 26.86402,0 0,-17.2692 -35.13648,0 0,58.11928 z m 8.27246,1.45542 0,2.39053 11.15576,0 a 369.76408,134.68984 0 0 0 -11.15576,-2.39053 z m 11.15576,2.39053 a 369.76408,134.68984 0 0 1 13.08731,2.92269 l 0,-2.92269 -13.08731,0 z m 28.89485,6.79652 a 369.76408,134.68984 0 0 1 8.27175,2.29084 l 0,-71.05259 -8.27175,0 0,68.76175 z m 24.73466,6.957 a 369.76408,134.68984 0 0 1 8.02597,2.72418 l 0,-53.65667 12.36138,57.85066 a 369.76408,134.68984 0 0 1 9.13826,3.41768 l -18.38715,-86.0546 -11.13846,0 0,75.71875 z m 29.52561,10.33585 8.72269,40.82222 0,-37.20518 a 369.76408,134.68984 0 0 0 -8.72269,-3.61704 z m 8.72269,3.61704 a 369.76408,134.68984 0 0 1 8.02664,3.32814 l 0,-92.99978 -8.02664,0 0,89.67164 z m 24.48957,11.38834 a 369.76408,134.68984 0 0 1 8.27173,4.2134 l 0,-25.83538 29.11666,0 0,-17.26919 -29.11666,0 0,-44.89961 30.38615,0 0,-17.2692 -38.65788,0 0,101.05998 z M 24.696169,1022.2768 a 369.76408,134.68984 0 0 1 16.293742,-14.9623 l 18.696201,-121.68776 -8.600125,0 -19.410874,127.68936 -19.370251,-127.68936 -8.640753,0 21.03206,136.65006 z m 43.876467,-33.07032 a 369.76408,134.68984 0 0 1 8.27175,-4.25057 l 0,-99.32917 -8.27175,0 0,103.57974 z"
       id="text7357"
       inkscape:connector-curvature="0" />
  </g>
</svg>
