<?xml version="1.0" encoding="utf-8"?>
<!-- Generator: Adobe Illustrator 15.1.0, SVG Export Plug-In . SVG Version: 6.00 Build 0)  -->
<!DOCTYPE svg PUBLIC "-//W3C//DTD SVG 1.1//EN" "http://www.w3.org/Graphics/SVG/1.1/DTD/svg11.dtd">
<svg version="1.1" id="Calque_1" xmlns="http://www.w3.org/2000/svg" xmlns:xlink="http://www.w3.org/1999/xlink" x="0px" y="0px"
	 width="841px" height="356px" viewBox="0 0 841 356" enable-background="new 0 0 841 356" xml:space="preserve">
<g>
	<g>
		<path fill="#3E3D40" d="M797.345,10c-18.559,0-33.654,15.101-33.654,33.667c0,18.543,15.095,33.644,33.654,33.644
			S831,62.211,831,43.667C831,25.101,815.904,10,797.345,10"/>
		<path fill="#3E3D40" d="M588.739,309.014c1.233,3.581,5.369,6.511,9.17,6.511h69.327c3.795,0,7.929-2.93,9.182-6.511
			l70.433-201.517c1.253-3.585-0.827-6.513-4.63-6.513h-47.174c-3.802,0-7.937,2.928-9.19,6.513l-51.006,145.93
			c-1.253,3.57-3.309,3.57-4.562,0l-51.004-145.93c-1.253-3.585-5.378-6.513-9.193-6.513h-47.176c-3.794,0-5.883,2.928-4.63,6.513
			L588.739,309.014z"/>
		<path fill="#3E3D40" d="M497.99,308.971c1.201,3.606,5.291,6.554,9.083,6.554h47.073c3.794,0,5.883-2.941,4.63-6.511
			l-70.442-201.517c-1.246-3.585-5.379-6.513-9.182-6.513h-69.322c-3.803,0-7.937,2.928-9.189,6.513l-70.435,201.517
			c-1.245,3.568,0.828,6.511,4.629,6.511h47.29c3.811,0,8.101-2.879,9.552-6.386l5.873-14.168c1.454-3.493,5.752-6.364,9.547-6.343
			l77.315,0.281c3.795,0.021,7.884,2.981,9.083,6.583L497.99,308.971z M471.905,234.978c1.253,3.579-0.836,6.514-4.631,6.514H421.7
			c-3.793,0-5.874-2.935-4.612-6.514l25.124-71.893c1.261-3.584,3.314-3.584,4.561,0L471.905,234.978z"/>
		<path fill="#3E3D40" d="M768.555,308.626c0,3.777,3.112,6.901,6.898,6.901h43.777c3.791,0,6.906-3.122,6.906-6.901V107.891
			c0-3.794-3.115-6.904-6.906-6.904h-43.777c-3.782,0-6.898,3.11-6.898,6.904V308.626z"/>
	</g>
	<g>
		<g>
			
				<linearGradient id="SVGID_1_" gradientUnits="userSpaceOnUse" x1="239.4546" y1="-1058.9404" x2="174.0693" y2="-1277.2281" gradientTransform="matrix(1 0 0 1 -9.3496 1362.2422)">
				<stop  offset="0" style="stop-color:#791C7F"/>
				<stop  offset="0.0939" style="stop-color:#7F1A7F"/>
				<stop  offset="0.2403" style="stop-color:#8F137E"/>
				<stop  offset="0.4208" style="stop-color:#A8007D"/>
				<stop  offset="0.6263" style="stop-color:#C7007B"/>
				<stop  offset="0.8" style="stop-color:#E2007A"/>
			</linearGradient>
			<path fill="url(#SVGID_1_)" d="M143.454,280.269c21.298,14.418,46.992,22.845,74.646,22.845c8.605,0,16.993-0.827,25.146-2.389
				c26.729-30.254,39.483-72.241,30.844-114.867c-10.25-50.659-47.96-88.754-94.474-101.929
				c12.383,15.816,21.344,34.662,25.609,55.675C216.714,196.34,190.324,251.961,143.454,280.269z"/>
		</g>
		
			<linearGradient id="SVGID_2_" gradientUnits="userSpaceOnUse" x1="30.0132" y1="-1104.1621" x2="195.9926" y2="-1274.1632" gradientTransform="matrix(1 0 0 1 -9.3496 1362.2422)">
			<stop  offset="0.202" style="stop-color:#E2007A"/>
			<stop  offset="0.3753" style="stop-color:#C7007B"/>
			<stop  offset="0.5803" style="stop-color:#A8007D"/>
			<stop  offset="0.7603" style="stop-color:#8F137E"/>
			<stop  offset="0.9063" style="stop-color:#7F1A7F"/>
			<stop  offset="1" style="stop-color:#791C7F"/>
		</linearGradient>
		<path fill="url(#SVGID_2_)" d="M207.343,178.165c-50.692-27.988-115.758-20.488-158.757,22.504
			c-15.152,15.161-25.884,33.063-32.229,52.113c-14.742-46.041-3.85-98.518,32.714-135.07
			C84.59,82.204,134.558,71.037,179.638,83.94C179.639,83.943,212.929,120.399,207.343,178.165z"/>
		
			<linearGradient id="SVGID_3_" gradientUnits="userSpaceOnUse" x1="255.4106" y1="-1073.6953" x2="28.1677" y2="-1119.9485" gradientTransform="matrix(1 0 0 1 -9.3496 1362.2422)">
			<stop  offset="0.1" style="stop-color:#E2007A"/>
			<stop  offset="0.2746" style="stop-color:#C7007B"/>
			<stop  offset="0.4812" style="stop-color:#A8007D"/>
			<stop  offset="0.6625" style="stop-color:#8F137E"/>
			<stop  offset="0.8096" style="stop-color:#7F1A7F"/>
			<stop  offset="0.904" style="stop-color:#791C7F"/>
		</linearGradient>
		<path fill="url(#SVGID_3_)" d="M16.357,252.802c6.345-19.051,17.076-36.954,32.229-52.115
			c10.884-10.86,23.143-19.447,36.249-25.785c2.736,71.269,61.342,128.21,133.261,128.21c8.615,0,17.012-0.833,25.166-2.395
			c-24.432,27.601-60.124,44.996-99.879,44.996c-59.487,0-109.787-38.915-126.962-92.718L16.357,252.802z"/>
	</g>
</g>
</svg>
